<?xml version="1.0" encoding="utf-8"?>
<!-- Generator: Adobe Illustrator 27.7.0, SVG Export Plug-In . SVG Version: 6.00 Build 0)  -->
<svg version="1.1" id="Layer_1" xmlns="http://www.w3.org/2000/svg" xmlns:xlink="http://www.w3.org/1999/xlink" x="0px" y="0px"
	 viewBox="0 0 246.8 98.2" style="enable-background:new 0 0 246.8 98.2;" xml:space="preserve">
<style type="text/css">
	.st0{fill:#619F5C;}
</style>
<g>
	<g>
		<path class="st0" d="M17.2,70.9V25.2H1.6V12.5h45.1v12.6H31.1v45.8H17.2z"/>
		<path class="st0" d="M74.1,72.2c-4.7,0-8.8-0.9-12.3-2.8s-6.3-4.5-8.3-7.9s-2.9-7.3-2.9-11.9c0-3.3,0.6-6.3,1.7-9.1
			c1.1-2.8,2.8-5.1,4.8-7.1c2.1-2,4.5-3.6,7.4-4.7c2.8-1.1,5.9-1.6,9.3-1.6c3.7,0,7.1,0.7,10,2c2.9,1.3,5.3,3.2,7.2,5.5
			s3.2,5.1,3.9,8.3c0.7,3.2,0.8,6.6,0.1,10.4h-32c0,1.7,0.5,3.1,1.5,4.4c1,1.3,2.3,2.2,4,2.9c1.7,0.7,3.7,1.1,5.9,1.1
			c2.5,0,4.9-0.3,7.1-1c2.3-0.7,4.4-1.7,6.5-3l4.3,9.3c-1.3,1-3,1.9-5.1,2.7c-2.1,0.8-4.3,1.4-6.6,1.9C78.4,72,76.2,72.2,74.1,72.2z
			 M63.9,44.1H82c-0.1-2.1-0.8-3.9-2.4-5.1C78.1,37.7,76,37,73.4,37c-2.6,0-4.8,0.6-6.6,1.9C65.1,40.2,64.1,41.9,63.9,44.1z"/>
		<path class="st0" d="M98.7,71.1L114.1,50L99.5,28.4h17.3l6.8,12.2l6.6-12.2h16.9L133,49.7l15.1,21.2h-17.5l-7.5-12l-7.6,11.9
			L98.7,71.1z"/>
		<path class="st0" d="M154.8,70.9V10.8h13.7v60.1H154.8z"/>
		<path class="st0" d="M186.2,89.6c-1.9,0-3.9-0.2-5.7-0.6c-1.9-0.4-3.6-1-5.2-1.9l2.9-11.4c0.9,0.5,1.9,0.8,3,1.1
			c1.1,0.3,2.1,0.4,3,0.4c1.5,0,2.8-0.3,3.9-1c1.1-0.6,1.8-1.7,2.3-3.2l0.6-2l-16.5-42.7h14.9l9.4,29.2l9.1-29.2h14.5l-17.7,46.8
			c-1.4,3.6-3.1,6.5-5,8.6c-1.9,2.1-4,3.6-6.3,4.5C191.2,89.1,188.8,89.6,186.2,89.6z"/>
		<path class="st0" d="M234.8,72.2c-2.3,0-4.3-0.7-6-2.2c-1.7-1.4-2.5-3.4-2.5-5.9c0-1.7,0.4-3.1,1.2-4.3c0.8-1.2,1.8-2.1,3.1-2.8
			c1.3-0.7,2.7-1,4.2-1c2.3,0,4.3,0.7,6,2.2c1.7,1.4,2.5,3.4,2.5,5.9c0,1.7-0.4,3.1-1.2,4.3c-0.8,1.2-1.8,2.1-3.1,2.8
			C237.7,71.9,236.3,72.2,234.8,72.2z"/>
	</g>
</g>
</svg>
