<?xml version="1.0" encoding="utf-8"?>
<!-- Generator: Adobe Illustrator 26.3.1, SVG Export Plug-In . SVG Version: 6.00 Build 0)  -->
<svg version="1.1" id="Layer_1" xmlns="http://www.w3.org/2000/svg" xmlns:xlink="http://www.w3.org/1999/xlink" x="0px" y="0px"
	 viewBox="0 0 178.2 59" style="enable-background:new 0 0 178.2 59;" xml:space="preserve">
<style type="text/css">
	.st0{fill:#5BA8FF;}
	.st1{fill:#85BCFD;}
	.st2{fill:#D9EEFB;}
</style>
<g>
	<path class="st0" d="M0,29.2C0,13.2,13,0,29,0l0,0h0.5C45.8,0,59,13.2,59,29.5l0,0C59,45.8,45.8,59,29.5,59l0,0
		C13.2,59,0,45.5,0,29.2L0,29.2z"/>
	<path class="st1" d="M29.5,7.8L29.5,7.8c12,0,21.7,9.7,21.7,21.7v0c0,12-9.7,21.7-21.7,21.7h0c-12,0-21.7-9.7-21.7-21.7v0
		C7.8,17.5,17.5,7.8,29.5,7.8z"/>
	<path class="st2" d="M29.5,15.9L29.5,15.9c7.5,0,13.6,6.1,13.6,13.6l0,0c0,7.5-6.1,13.6-13.6,13.6h0c-7.5,0-13.6-6.1-13.6-13.6l0,0
		C15.9,22,22,15.9,29.5,15.9z"/>
</g>
<g>
	<path d="M93.7,37.5H83.3l-1.7,5H76l9.4-26.3h6.1l9.4,26.3h-5.6L93.7,37.5z M88.5,22.3l-3.8,11h7.6L88.5,22.3z"/>
	<path d="M104.5,16.3h5.3v16.2c0,3.6,2,5.5,5.3,5.5c3.4,0,5.3-1.9,5.3-5.5V16.3h5.3v16.2c0,6.9-5,10.3-10.7,10.3
		c-5.8,0-10.5-3.4-10.5-10.3V16.3z"/>
	<path d="M140.6,16.3c6.3,0,9.5,3.6,9.5,8c0,3.2-1.8,6.4-6,7.6l6.3,10.6h-6.1l-5.8-10.2H136v10.2h-5.3V16.3H140.6z M140.4,20.6H136
		v7.7h4.4c2.9,0,4.2-1.5,4.2-3.9C144.6,22.1,143.3,20.6,140.4,20.6z"/>
	<path d="M170.9,37.5h-10.4l-1.7,5h-5.5l9.4-26.3h6.1l9.4,26.3h-5.6L170.9,37.5z M165.7,22.3l-3.8,11h7.6L165.7,22.3z"/>
</g>
</svg>
