<?xml version="1.0" encoding="utf-8"?>
<!-- Generator: Adobe Illustrator 27.7.0, SVG Export Plug-In . SVG Version: 6.00 Build 0)  -->
<svg version="1.1" id="layer" xmlns="http://www.w3.org/2000/svg" xmlns:xlink="http://www.w3.org/1999/xlink" x="0px" y="0px"
	 viewBox="0 0 599.9 182.6" style="enable-background:new 0 0 599.9 182.6;" xml:space="preserve">
<style type="text/css">
	.st0{fill:#F27557;}
	.st1{fill:#C34027;}
	.st2{fill:#FEFEFE;}
	.st3{fill:#3C3D3F;}
</style>
<g>
	<path class="st0" d="M113.3,72.8c0,2.9-2.4,5.3-5.3,5.3H29c-2.9,0-5.3-2.4-5.3-5.3s2.4-5.3,5.3-5.3l0,0h79.1
		C111,67.5,113.3,69.8,113.3,72.8 M92.2,101.8H44.8c-2.9,0.1-5.3-2.2-5.4-5.1s2.2-5.3,5.1-5.4c0.1,0,0.2,0,0.3,0h47.5
		c2.9,0,5.3,2.4,5.3,5.3S95.2,101.8,92.2,101.8 M44.8,43.8h47.5c2.9,0,5.3,2.4,5.3,5.3s-2.4,5.3-5.3,5.3H44.8
		c-2.9,0-5.3-2.4-5.3-5.3S41.9,43.8,44.8,43.8L44.8,43.8 M108.2,30.5C97.5,20.4,83.3,14.7,68.5,14.8c-1.2,0-2.5,0-3.7,0.1
		C35.7,16.7,12.4,40,10.6,69.1c-1,16.2,4.5,31.6,15.6,43.4c10.9,11.7,26.2,18.3,42.3,18.3h58v-58C126.6,56.7,120,41.4,108.2,30.5"/>
	<path class="st1" d="M126.5,130.8h-58c-16.2,0-31.2-6.5-42.3-18.3S9.6,85.3,10.6,69.1C12.4,40,35.7,16.7,64.8,14.9
		c1.3-0.1,2.5-0.1,3.8-0.1c14.8,0,29,5.6,39.7,15.7c11.7,10.9,18.4,26.2,18.3,42.3v58H126.5z M115.4,22.8
		C101.5,9.7,83.3,3.1,64.1,4.4c-34.4,2.1-61.9,29.7-64,64c-1.2,19.1,5.4,37.4,18.5,51.3c13,13.8,31,21.6,49.9,21.6h63.3
		c2.9,0,5.3-2.4,5.3-5.3V72.7C137,53.9,129.2,35.8,115.4,22.8L115.4,22.8z"/>
	<path class="st2" d="M92.2,91.2H44.8c-2.9,0-5.3,2.4-5.3,5.3s2.4,5.3,5.3,5.3l0,0h47.5c2.9,0,5.3-2.4,5.3-5.3
		C97.5,93.6,95.2,91.2,92.2,91.2 M44.8,54.3h47.5c2.9,0,5.3-2.4,5.3-5.3s-2.4-5.3-5.3-5.3H44.8c-2.9,0-5.3,2.4-5.3,5.3
		S41.9,54.3,44.8,54.3L44.8,54.3 M29,67.5c-2.9,0.1-5.2,2.5-5.1,5.4c0.1,2.8,2.3,5,5.1,5.1h79.1c2.9,0,5.3-2.4,5.3-5.3
		s-2.4-5.3-5.3-5.3L29,67.5L29,67.5z"/>
	<path id="logo-text" class="st3" d="M289.3,74.3c0-21.9-14.9-42.4-39.1-42.4c-24.4,0-39.1,20.4-39.1,42.4
		c0,21.9,14.7,42.4,39.1,42.4C274.4,116.6,289.3,96.2,289.3,74.3 M281.6,137l11.4,15.5l-27,13.7l-16-21.8
		c-44.5-0.2-70.6-33.6-70.6-70.2S205.7,4,250.2,4c44.3,0,70.6,33.6,70.6,70.2C320.8,101,306.4,126.2,281.6,137 M426.5,49.1v92h-29.2
		v-13.2c-5.2,9.7-15.8,15.5-30.2,15.5c-11.8,0-20.8-4-25.8-10.5c-5.7-7.1-7.1-16-7.1-29.2V49.1h29v47.1c0,13.2,4,22.3,16.2,22.3
		c12,0,17.7-9.2,17.7-23.3V49h29.4V49.1z"/>
	<path id="logo-text_1_" class="st3" d="M447.5,141.1h29.2v-92h-29.2V141.1z M462,0c10.7,0,18.9,8.2,18.9,18.5
		c0,10.1-8.2,18.5-18.9,18.5c-10.3,0.1-18.6-8.2-18.7-18.4c0,0,0,0,0-0.1C443.3,8.2,451.5,0,462,0z M526.9,95.1
		c0,12.8,8.8,23.5,22.1,23.5c13,0,21.8-10.7,21.8-23.5S562,71.6,549,71.6C535.7,71.6,526.9,82.3,526.9,95.1z M526.9,62.2
		c4.4-8.4,16.2-15.5,28.2-15.5c26.5,0,44.8,20.8,44.8,48.3s-18.3,48.3-44.9,48.3c-12,0-23.8-7.1-28.2-15.5v54.8h-29.2V49.1h29.2
		L526.9,62.2L526.9,62.2z"/>
</g>
</svg>
